<?xml version="1.0" encoding="UTF-8"?>
<svg id="Layer_2" data-name="Layer 2" xmlns="http://www.w3.org/2000/svg" viewBox="0 0 1270.16 461.86">
  <defs>
    <style>
      .cls-1 {
        fill: #212e21;
      }

      .cls-2 {
        fill: #ebfc72;
      }
    </style>
  </defs>
  <g id="Layer_1-2" data-name="Layer 1">
    <rect class="cls-2" width="1270.16" height="461.86" rx="35.61" ry="35.61"/>
    <g>
      <path class="cls-1" d="M286.1,184.07h-28.05c-3.1,0-6.03,1.38-8.02,3.76l-51.25,61.57c-2.88,3.46-8.51,1.87-9.14-2.59l-21.37-149.89c-.83-5.79-6.25-9.77-12.03-8.82l-25.09,4.15c-5.58.92-9.41,6.13-8.63,11.73l33.47,239.52c1.28,9.19,13.02,12.25,18.64,4.86l24.2-31.87,15.83-19.16,21.75,23.99c1.71,2.07,4.25,3.27,6.93,3.27h40.66c7.55,0,11.73-8.74,6.99-14.62l-44.17-51.56,47.32-57.27c5.62-6.8.78-17.07-8.04-17.07Z"/>
      <path class="cls-1" d="M403.93,323.45c-.32-3.91-2.64-7.51-6.28-8.98-9.3-3.76-17.36-12.14-19.04-25.32l-13.13-92.13c-.72-5.03-5.03-8.77-10.11-8.77l-18.32-.11c-6.21,0-10.98,5.5-10.11,11.65l13.01,91.55c4.49,33.06,34.9,52.67,49.71,55.22,6.48,1.12,15.81-4.28,15.27-10.84l-1-12.28Z"/>
      <path class="cls-1" d="M481.47,303.77l-15.3-107.64c-.62-4.38-4.37-7.63-8.79-7.63l-19.81-.35c-5.4,0-9.55,4.77-8.79,10.12l18.12,128.72c1.49,6.88,4.9,12.44,8.06,16.44,2.48,3.14,8.84,4.56,12.52,3l15.31-6.48c4.52-1.91,6.53-7.07,4.71-11.63-2.62-6.56-4.66-14.96-6.03-24.56Z"/>
      <path class="cls-1" d="M1148.43,365.43l-15.18-109.84c-7.43-52.37-31.85-75.73-75.38-75.73-19.95,0-35.39,8.25-45.8,17.63-5.38,4.85-13.98,1.8-15.19-5.35h0c-.75-4.44-4.59-7.69-9.09-7.69h-25.47c-5.61,0-9.91,4.96-9.13,10.51l13.67,96.57c.64,4.55,4.54,7.93,9.13,7.93h25.12c5.65,0,9.98-5.04,9.11-10.63l-4.96-32.01c-.3-1.95,0-3.98.93-5.72,9.31-17.29,24.04-29.14,43.9-29.14s36.8,14.86,39.99,36.45l15.18,109.53c.63,4.56,4.53,7.95,9.13,7.95h24.92c5.59,0,9.9-4.94,9.13-10.48Z"/>
      <path class="cls-1" d="M962.29,330.26c-2.46-3.95-6.85-6.11-11.51-6.09-.03,0-.06,0-.08,0-9.06,0-13.43-8.75-15.62-22.8,0,0-1.85-8.73-8.29-39.15-12.47-58.86-54.5-82.36-94.16-82.36-48.42,0-80.9,38.42-73.72,89.65,5.76,41.7,37.78,76.4,77.23,85.09,8.44,1.86,19.29-10.2,18.61-18.82l1.74-2.54c-.41-5.21-4.31-15.8-9.31-17.31-23.25-6.99-43.3-21.93-47.23-49.14-4.69-32.8,9.85-47.97,37.95-48.71,19.34-.51,31.5,10.87,42.25,36.07,10.75,25.2,19.28,67.19,20.66,77.93.15,1.18.43,2.37.9,3.46,6.81,15.86,24.38,21.11,35.25,21.11s18.26-2.61,23.79-6.49c5.53-3.87,6.72-11.6,3.15-17.33l-1.6-2.58Z"/>
      <path class="cls-1" d="M733.98,184.07h-28.05c-3.1,0-6.03,1.38-8.02,3.76l-51.25,61.57c-2.88,3.46-8.51,1.87-9.14-2.59l-21.37-149.89c-.83-5.79-6.25-9.77-12.03-8.82l-25.09,4.15c-5.58.92-9.41,6.13-8.63,11.73l33.47,239.52c1.28,9.19,13.02,12.25,18.64,4.86l24.2-31.87,15.83-19.16,21.75,23.99c1.71,2.07,4.25,3.27,6.93,3.27h40.66c7.55,0,11.73-8.74,6.99-14.62l-44.17-51.56,47.32-57.27c5.62-6.8.78-17.07-8.04-17.07Z"/>
      <path class="cls-1" d="M540.96,96.91c-.79-5.62-5.76-9.71-11.43-9.38l-24.13,5.1c-6.37.36-11.07,6.09-10.19,12.4l33.7,241.19c.75,5.39,5.36,9.4,10.81,9.4h24.45c6.63,0,11.72-5.86,10.81-12.42l-34.02-246.29Z"/>
    </g>
  </g>
</svg>